<svg id="visual" viewBox="0 0 900 600" width="900" height="600" xmlns="http://www.w3.org/2000/svg" xmlns:xlink="http://www.w3.org/1999/xlink" version="1.1"><rect width="900" height="600" fill="#001829"></rect><g><g transform="translate(380 436)"><path d="M0 -13.1L11.4 6.6L-11.4 6.6Z" fill="#297EA6"></path></g><g transform="translate(691 116)"><path d="M0 -9L7.8 4.5L-7.8 4.5Z" fill="#297EA6"></path></g><g transform="translate(536 444)"><path d="M0 -11L9.5 5.5L-9.5 5.5Z" fill="#297EA6"></path></g><g transform="translate(624 263)"><path d="M0 -9L7.8 4.5L-7.8 4.5Z" fill="#297EA6"></path></g><g transform="translate(516 312)"><path d="M0 -10L8.7 5L-8.7 5Z" fill="#297EA6"></path></g><g transform="translate(731 309)"><path d="M0 -8L6.9 4L-6.9 4Z" fill="#297EA6"></path></g><g transform="translate(683 374)"><path d="M0 -11L9.5 5.5L-9.5 5.5Z" fill="#297EA6"></path></g><g transform="translate(258 72)"><path d="M0 -10L8.7 5L-8.7 5Z" fill="#297EA6"></path></g><g transform="translate(791 277)"><path d="M0 -11L9.5 5.5L-9.5 5.5Z" fill="#297EA6"></path></g><g transform="translate(885 50)"><path d="M0 -9L7.8 4.5L-7.8 4.5Z" fill="#297EA6"></path></g><g transform="translate(801 391)"><path d="M0 -12L10.4 6L-10.4 6Z" fill="#297EA6"></path></g><g transform="translate(492 29)"><path d="M0 -6L5.2 3L-5.2 3Z" fill="#297EA6"></path></g><g transform="translate(704 474)"><path d="M0 -6L5.2 3L-5.2 3Z" fill="#297EA6"></path></g><g transform="translate(843 58)"><path d="M0 -10L8.7 5L-8.7 5Z" fill="#297EA6"></path></g><g transform="translate(262 485)"><path d="M0 -12L10.4 6L-10.4 6Z" fill="#297EA6"></path></g><g transform="translate(334 79)"><path d="M0 -11L9.5 5.5L-9.5 5.5Z" fill="#297EA6"></path></g><g transform="translate(32 492)"><path d="M0 -12L10.4 6L-10.4 6Z" fill="#297EA6"></path></g><g transform="translate(632 484)"><path d="M0 -12L10.4 6L-10.4 6Z" fill="#297EA6"></path></g><g transform="translate(12 62)"><path d="M0 -8L6.9 4L-6.9 4Z" fill="#297EA6"></path></g><g transform="translate(799 68)"><path d="M0 -8L6.9 4L-6.9 4Z" fill="#297EA6"></path></g><g transform="translate(639 519)"><path d="M0 -9L7.8 4.5L-7.8 4.5Z" fill="#297EA6"></path></g><g transform="translate(529 346)"><path d="M0 -11L9.5 5.5L-9.5 5.5Z" fill="#297EA6"></path></g><g transform="translate(739 475)"><path d="M0 -9L7.8 4.5L-7.8 4.5Z" fill="#297EA6"></path></g><g transform="translate(574 145)"><path d="M0 -6L5.2 3L-5.2 3Z" fill="#297EA6"></path></g><g transform="translate(874 352)"><path d="M0 -10L8.7 5L-8.7 5Z" fill="#297EA6"></path></g><g transform="translate(243 96)"><path d="M0 -6L5.2 3L-5.2 3Z" fill="#297EA6"></path></g><g transform="translate(740 505)"><path d="M0 -6L5.2 3L-5.2 3Z" fill="#297EA6"></path></g><g transform="translate(171 358)"><path d="M0 -10L8.7 5L-8.7 5Z" fill="#297EA6"></path></g><g transform="translate(626 589)"><path d="M0 -6L5.2 3L-5.2 3Z" fill="#297EA6"></path></g><g transform="translate(367 174)"><path d="M0 -8L6.9 4L-6.9 4Z" fill="#297EA6"></path></g><g transform="translate(578 267)"><path d="M0 -7L6.1 3.5L-6.1 3.5Z" fill="#297EA6"></path></g><g transform="translate(772 400)"><path d="M0 -8L6.9 4L-6.9 4Z" fill="#297EA6"></path></g><g transform="translate(841 239)"><path d="M0 -12L10.4 6L-10.4 6Z" fill="#297EA6"></path></g><g transform="translate(11 399)"><path d="M0 -12L10.4 6L-10.4 6Z" fill="#297EA6"></path></g><g transform="translate(704 190)"><path d="M0 -8L6.9 4L-6.9 4Z" fill="#297EA6"></path></g><g transform="translate(315 373)"><path d="M0 -7L6.1 3.5L-6.1 3.5Z" fill="#297EA6"></path></g><g transform="translate(395 359)"><path d="M0 -6L5.2 3L-5.2 3Z" fill="#297EA6"></path></g><g transform="translate(705 389)"><path d="M0 -6L5.2 3L-5.2 3Z" fill="#297EA6"></path></g><g transform="translate(199 100)"><path d="M0 -10L8.7 5L-8.7 5Z" fill="#297EA6"></path></g><g transform="translate(377 268)"><path d="M0 -11L9.5 5.5L-9.5 5.5Z" fill="#297EA6"></path></g><g transform="translate(844 105)"><path d="M0 -12L10.4 6L-10.4 6Z" fill="#297EA6"></path></g><g transform="translate(382 85)"><path d="M0 -8L6.9 4L-6.9 4Z" fill="#297EA6"></path></g><g transform="translate(844 186)"><path d="M0 -11L9.5 5.5L-9.5 5.5Z" fill="#297EA6"></path></g><g transform="translate(281 3)"><path d="M0 -6L5.2 3L-5.2 3Z" fill="#297EA6"></path></g><g transform="translate(682 553)"><path d="M0 -11L9.5 5.5L-9.5 5.5Z" fill="#297EA6"></path></g><g transform="translate(876 214)"><path d="M0 -7L6.1 3.5L-6.1 3.5Z" fill="#297EA6"></path></g><g transform="translate(529 570)"><path d="M0 -9L7.8 4.5L-7.8 4.5Z" fill="#297EA6"></path></g><g transform="translate(379 21)"><path d="M0 -7L6.1 3.5L-6.1 3.5Z" fill="#297EA6"></path></g><g transform="translate(708 160)"><path d="M0 -7L6.1 3.5L-6.1 3.5Z" fill="#297EA6"></path></g><g transform="translate(128 256)"><path d="M0 -10L8.7 5L-8.7 5Z" fill="#297EA6"></path></g><g transform="translate(774 184)"><path d="M0 -6L5.2 3L-5.2 3Z" fill="#297EA6"></path></g><g transform="translate(19 191)"><path d="M0 -9L7.8 4.5L-7.8 4.5Z" fill="#297EA6"></path></g><g transform="translate(883 244)"><path d="M0 -9L7.8 4.5L-7.8 4.5Z" fill="#297EA6"></path></g><g transform="translate(156 397)"><path d="M0 -10L8.7 5L-8.7 5Z" fill="#297EA6"></path></g><g transform="translate(257 43)"><path d="M0 -12L10.4 6L-10.4 6Z" fill="#297EA6"></path></g><g transform="translate(459 112)"><path d="M0 -6L5.2 3L-5.2 3Z" fill="#297EA6"></path></g><g transform="translate(783 581)"><path d="M0 -8L6.9 4L-6.9 4Z" fill="#297EA6"></path></g><g transform="translate(421 393)"><path d="M0 -10L8.7 5L-8.7 5Z" fill="#297EA6"></path></g><g transform="translate(762 540)"><path d="M0 -8L6.9 4L-6.9 4Z" fill="#297EA6"></path></g><g transform="translate(642 387)"><path d="M0 -10L8.7 5L-8.7 5Z" fill="#297EA6"></path></g><g transform="translate(579 345)"><path d="M0 -6L5.2 3L-5.2 3Z" fill="#297EA6"></path></g><g transform="translate(854 272)"><path d="M0 -9L7.8 4.5L-7.8 4.5Z" fill="#297EA6"></path></g><g transform="translate(592 588)"><path d="M0 -11L9.5 5.5L-9.5 5.5Z" fill="#297EA6"></path></g><g transform="translate(304 115)"><path d="M0 -8L6.9 4L-6.9 4Z" fill="#297EA6"></path></g><g transform="translate(813 132)"><path d="M0 -11L9.5 5.5L-9.5 5.5Z" fill="#297EA6"></path></g><g transform="translate(859 163)"><path d="M0 -6L5.2 3L-5.2 3Z" fill="#297EA6"></path></g><g transform="translate(483 342)"><path d="M0 -11L9.5 5.5L-9.5 5.5Z" fill="#297EA6"></path></g><g transform="translate(186 472)"><path d="M0 -12L10.4 6L-10.4 6Z" fill="#297EA6"></path></g><g transform="translate(441 169)"><path d="M0 -11L9.5 5.5L-9.5 5.5Z" fill="#297EA6"></path></g><g transform="translate(328 234)"><path d="M0 -11L9.5 5.5L-9.5 5.5Z" fill="#297EA6"></path></g><g transform="translate(452 366)"><path d="M0 -8L6.9 4L-6.9 4Z" fill="#297EA6"></path></g><g transform="translate(389 332)"><path d="M0 -9L7.8 4.5L-7.8 4.5Z" fill="#297EA6"></path></g><g transform="translate(220 397)"><path d="M0 -6L5.2 3L-5.2 3Z" fill="#297EA6"></path></g><g transform="translate(845 507)"><path d="M0 -9L7.8 4.5L-7.8 4.5Z" fill="#297EA6"></path></g><g transform="translate(598 467)"><path d="M0 -10L8.7 5L-8.7 5Z" fill="#297EA6"></path></g><g transform="translate(664 257)"><path d="M0 -12L10.4 6L-10.4 6Z" fill="#297EA6"></path></g><g transform="translate(831 420)"><path d="M0 -6L5.2 3L-5.2 3Z" fill="#297EA6"></path></g><g transform="translate(527 257)"><path d="M0 -8L6.9 4L-6.9 4Z" fill="#297EA6"></path></g><g transform="translate(425 40)"><path d="M0 -8L6.9 4L-6.9 4Z" fill="#297EA6"></path></g><g transform="translate(48 337)"><path d="M0 -12L10.4 6L-10.4 6Z" fill="#297EA6"></path></g><g transform="translate(201 276)"><path d="M0 -11L9.5 5.5L-9.5 5.5Z" fill="#297EA6"></path></g><g transform="translate(450 212)"><path d="M0 -8L6.9 4L-6.9 4Z" fill="#297EA6"></path></g><g transform="translate(732 347)"><path d="M0 -9L7.8 4.5L-7.8 4.5Z" fill="#297EA6"></path></g><g transform="translate(264 334)"><path d="M0 -10L8.7 5L-8.7 5Z" fill="#297EA6"></path></g><g transform="translate(459 498)"><path d="M0 -6L5.2 3L-5.2 3Z" fill="#297EA6"></path></g><g transform="translate(301 291)"><path d="M0 -10L8.7 5L-8.7 5Z" fill="#297EA6"></path></g><g transform="translate(126 153)"><path d="M0 -10L8.7 5L-8.7 5Z" fill="#297EA6"></path></g><g transform="translate(878 406)"><path d="M0 -11L9.5 5.5L-9.5 5.5Z" fill="#297EA6"></path></g><g transform="translate(470 300)"><path d="M0 -12L10.4 6L-10.4 6Z" fill="#297EA6"></path></g><g transform="translate(237 422)"><path d="M0 -6L5.2 3L-5.2 3Z" fill="#297EA6"></path></g><g transform="translate(777 225)"><path d="M0 -10L8.7 5L-8.7 5Z" fill="#297EA6"></path></g><g transform="translate(703 335)"><path d="M0 -7L6.1 3.5L-6.1 3.5Z" fill="#297EA6"></path></g><g transform="translate(12 430)"><path d="M0 -6L5.2 3L-5.2 3Z" fill="#297EA6"></path></g><g transform="translate(402 513)"><path d="M0 -6L5.2 3L-5.2 3Z" fill="#297EA6"></path></g><g transform="translate(681 49)"><path d="M0 -8L6.9 4L-6.9 4Z" fill="#297EA6"></path></g><g transform="translate(555 555)"><path d="M0 -12L10.4 6L-10.4 6Z" fill="#297EA6"></path></g><g transform="translate(643 156)"><path d="M0 -6L5.2 3L-5.2 3Z" fill="#297EA6"></path></g><g transform="translate(207 245)"><path d="M0 -8L6.9 4L-6.9 4Z" fill="#297EA6"></path></g><g transform="translate(167 37)"><path d="M0 -9L7.8 4.5L-7.8 4.5Z" fill="#297EA6"></path></g><g transform="translate(149 510)"><path d="M0 -7L6.1 3.5L-6.1 3.5Z" fill="#297EA6"></path></g><g transform="translate(13 123)"><path d="M0 -12L10.4 6L-10.4 6Z" fill="#297EA6"></path></g><g transform="translate(498 366)"><path d="M0 -12L10.4 6L-10.4 6Z" fill="#297EA6"></path></g><g transform="translate(158 89)"><path d="M0 -11L9.5 5.5L-9.5 5.5Z" fill="#297EA6"></path></g><g transform="translate(821 581)"><path d="M0 -7L6.1 3.5L-6.1 3.5Z" fill="#297EA6"></path></g></g></svg>